<svg width="22" height="22" viewBox="0 0 22 22" fill="none" xmlns="http://www.w3.org/2000/svg">
<path d="M20.5794 15.9045C20.3551 15.6655 19.5632 14.9591 18.1074 14.0246C16.6409 13.0818 15.5594 12.494 15.2491 12.3569C15.2218 12.3448 15.1917 12.3404 15.162 12.3441C15.1323 12.3478 15.1042 12.3595 15.0807 12.378C14.581 12.7677 13.7397 13.4836 13.6945 13.5223C13.4032 13.7719 13.4032 13.7719 13.1647 13.6941C12.7454 13.5566 11.4425 12.8648 10.3073 11.727C9.17208 10.5892 8.44462 9.25418 8.30712 8.83523C8.22848 8.59633 8.22848 8.59633 8.47899 8.305C8.51766 8.25988 9.23395 7.41855 9.62368 6.91926C9.64216 6.89574 9.65389 6.86764 9.6576 6.83796C9.66131 6.80828 9.65686 6.77816 9.64473 6.75082C9.50766 6.44015 8.91985 5.35906 7.97712 3.89254C7.04126 2.43718 6.33571 1.64527 6.0968 1.42097C6.07488 1.40029 6.04778 1.38589 6.01837 1.37931C5.98895 1.37274 5.9583 1.37421 5.92965 1.38359C5.09455 1.67057 4.2888 2.03676 3.52341 2.47715C2.78452 2.90667 2.085 3.40058 1.43298 3.95312C1.41021 3.97247 1.39315 3.99765 1.38361 4.02596C1.37407 4.05427 1.37242 4.08465 1.37883 4.11383C1.46864 4.53234 1.8979 6.27945 3.22993 8.69945C4.58903 11.1693 5.5309 12.4347 7.5268 14.4237C9.5227 16.4128 10.8281 17.4114 13.3005 18.7705C15.7205 20.1025 17.4685 20.5322 17.8861 20.6211C17.9154 20.6275 17.9458 20.6258 17.9742 20.6163C18.0025 20.6067 18.0278 20.5897 18.0473 20.567C18.5997 19.915 19.0935 19.2155 19.5228 18.4766C19.9631 17.7111 20.3293 16.9054 20.6164 16.0703C20.6256 16.0419 20.627 16.0115 20.6205 15.9823C20.614 15.9532 20.5998 15.9263 20.5794 15.9045Z" fill="#B5BAC1"/>
</svg>
