<svg width="26" height="26" viewBox="0 0 26 26" fill="none" xmlns="http://www.w3.org/2000/svg">
<path d="M8.9375 22.75C9.83496 22.75 10.5625 22.0225 10.5625 21.125C10.5625 20.2275 9.83496 19.5 8.9375 19.5C8.04004 19.5 7.3125 20.2275 7.3125 21.125C7.3125 22.0225 8.04004 22.75 8.9375 22.75Z" />
<path d="M20.3125 22.75C21.21 22.75 21.9375 22.0225 21.9375 21.125C21.9375 20.2275 21.21 19.5 20.3125 19.5C19.415 19.5 18.6875 20.2275 18.6875 21.125C18.6875 22.0225 19.415 22.75 20.3125 22.75Z" />
<path d="M8.52008 15.4375H21.7913L23.7412 5.6875H6.7991L6.36898 3.25H1.625V4.875H5.00602L7.44352 18.6875H21.9375V17.0625H8.80648L8.52008 15.4375Z" />
</svg>
