<svg width="28" height="28" viewBox="0 0 28 28" fill="none" xmlns="http://www.w3.org/2000/svg">
<path d="M22.4853 5.3293C20.1485 3.0543 17.0559 1.75 14 1.75C10.9441 1.75 7.85148 3.0543 5.51469 5.3293C3.08711 7.69289 1.75 10.7188 1.75 14C1.75 17.2812 3.21781 20.4799 4.23391 22.3262C5.25 24.1724 6.61719 26.25 7.875 26.25C9.625 26.25 13.125 24.5 13.125 24.5L7 13.125L4.02391 14.8602C3.98728 14.518 3.96902 14.1741 3.96922 13.8299C3.96922 11.1737 5.02578 8.68383 7.03992 6.72055C8.98187 4.83109 11.4844 3.82812 14 3.82812C16.5156 3.82812 19.0165 4.83109 20.9601 6.72273C22.9742 8.68383 24.0302 11.1737 24.0302 13.8321C24.0304 14.1759 24.0122 14.5195 23.9755 14.8613L21 13.125L14.875 24.5C14.875 24.5 18.375 26.25 20.125 26.25C21.3828 26.25 22.75 24.1719 23.7661 22.3262C24.7822 20.4805 26.25 17.2812 26.25 14C26.25 10.7188 24.9129 7.69289 22.4853 5.3293Z" fill="#B5BAC1"/>
</svg>
