<svg width="28" height="28" viewBox="0 0 28 28" fill="none" xmlns="http://www.w3.org/2000/svg">
<path d="M23.625 21.875L5.25 3.5" stroke="#F23F42" stroke-width="2" stroke-miterlimit="10" stroke-linecap="square"/>
<path d="M20.125 10.5V13.125C20.1251 13.5936 20.0714 14.0606 19.9648 14.5168L21.3637 15.9141C21.7026 15.0233 21.8758 14.0781 21.875 13.125V10.5H20.125ZM14.875 23.625V20.9514C15.9686 20.8297 17.0242 20.4788 17.973 19.9216L16.6797 18.6293C15.746 19.0815 14.7128 19.2893 13.6769 19.2335C12.641 19.1776 11.6362 18.8599 10.7565 18.3099C9.87683 17.76 9.15106 16.9959 8.6471 16.0891C8.14315 15.1823 7.8775 14.1624 7.875 13.125V10.5H6.125V13.125C6.125 17.1719 9.19297 20.5144 13.125 20.9514V23.625H9.625V25.375H18.375V23.625H14.875ZM18.375 12.9265V7.00003C18.375 4.54675 16.4533 2.62503 14 2.62503C13.2378 2.62229 12.4882 2.81953 11.8261 3.19704C11.164 3.57455 10.6124 4.11914 10.2266 4.77643" fill="#F23F42"/>
<path d="M9.625 11.5735V13.0703C9.62579 14.236 10.0867 15.3542 10.9074 16.182C11.4673 16.764 12.1798 17.1763 12.9633 17.3718C13.7468 17.5673 14.5695 17.538 15.3371 17.2872L9.625 11.5735Z" fill="#F23F42"/>
</svg>
