<svg width="28" height="28" viewBox="0 0 28 28" fill="none" xmlns="http://www.w3.org/2000/svg">
<path d="M10.5 24.5H17.5M21 11.375V13.125C21 16.975 17.85 20.125 14 20.125M14 20.125C10.15 20.125 7 16.975 7 13.125V11.375M14 20.125V24.5" stroke="#B5BAC1" stroke-width="2" stroke-miterlimit="10" stroke-linecap="square"/>
<path d="M14 17.5C13.4226 17.4987 12.8512 17.3813 12.32 17.1549C11.7887 16.9285 11.3084 16.5977 10.9075 16.1821C10.0867 15.3543 9.62582 14.236 9.62503 13.0703V7.00003C9.62279 6.42487 9.73442 5.85496 9.95349 5.32314C10.1726 4.79133 10.4947 4.30815 10.9014 3.90144C11.3081 3.49474 11.7913 3.17256 12.3231 2.95349C12.855 2.73442 13.4249 2.62279 14 2.62503C16.4533 2.62503 18.375 4.54675 18.375 7.00003V13.0703C18.375 15.5127 16.4123 17.5 14 17.5Z" fill="#B5BAC1"/>
</svg>
