<svg width="26" height="26" viewBox="0 0 26 26" fill="none" xmlns="http://www.w3.org/2000/svg">
<path d="M7.71875 13C9.73804 13 11.375 11.363 11.375 9.34375C11.375 7.32446 9.73804 5.6875 7.71875 5.6875C5.69946 5.6875 4.0625 7.32446 4.0625 9.34375C4.0625 11.363 5.69946 13 7.71875 13Z" />
<path d="M11.8828 15.0312C10.4528 14.3051 8.87453 14.0156 7.71875 14.0156C5.45492 14.0156 0.8125 15.404 0.8125 18.1797V20.3125H8.42969V19.4964C8.42969 18.5316 8.83594 17.5642 9.54688 16.7578C10.1141 16.1139 10.9083 15.5162 11.8828 15.0312Z" />
<path d="M17.2656 14.625C14.6214 14.625 9.34375 16.2581 9.34375 19.5V21.9375H25.1875V19.5C25.1875 16.2581 19.9098 14.625 17.2656 14.625Z"/>
<path d="M17.2656 13C19.7336 13 21.7344 10.9993 21.7344 8.53125C21.7344 6.06323 19.7336 4.0625 17.2656 4.0625C14.7976 4.0625 12.7969 6.06323 12.7969 8.53125C12.7969 10.9993 14.7976 13 17.2656 13Z" />
</svg>
