<svg width="28" height="28" viewBox="0 0 28 28" fill="none" xmlns="http://www.w3.org/2000/svg">
<path d="M13.9999 9.625C13.1346 9.625 12.2888 9.88159 11.5693 10.3623C10.8498 10.8431 10.2891 11.5263 9.95794 12.3258C9.62681 13.1252 9.54017 14.0049 9.70898 14.8535C9.87779 15.7022 10.2945 16.4817 10.9063 17.0936C11.5182 17.7054 12.2977 18.1221 13.1464 18.2909C13.9951 18.4597 14.8747 18.3731 15.6742 18.042C16.4736 17.7108 17.1569 17.1501 17.6376 16.4306C18.1183 15.7112 18.3749 14.8653 18.3749 14C18.3715 12.8407 17.9094 11.73 17.0897 10.9102C16.27 10.0905 15.1592 9.62846 13.9999 9.625ZM23.4455 14C23.4433 14.4088 23.4133 14.817 23.3559 15.2217L26.0186 17.3064C26.1346 17.4022 26.2127 17.536 26.239 17.6841C26.2654 17.8322 26.2382 17.9848 26.1624 18.1147L23.6435 22.4634C23.5669 22.5922 23.4474 22.6898 23.306 22.7391C23.1645 22.7884 23.0102 22.7863 22.8702 22.733L19.7394 21.4752C19.0874 21.9773 18.374 22.3939 17.6164 22.715L17.1483 26.0389C17.1221 26.1878 17.045 26.323 16.9302 26.4213C16.8154 26.5197 16.67 26.5751 16.5188 26.5781H11.481C11.3326 26.5752 11.1896 26.5221 11.0753 26.4275C10.9609 26.3328 10.8821 26.2022 10.8516 26.057L10.3834 22.733C9.62375 22.4157 8.9098 21.9984 8.26046 21.4922L5.1296 22.75C4.98965 22.8033 4.8354 22.8055 4.69396 22.7563C4.55253 22.7071 4.43298 22.6096 4.35632 22.4809L1.83741 18.1327C1.7616 18.0028 1.73443 17.8502 1.76078 17.7022C1.78713 17.5541 1.86527 17.4202 1.98124 17.3245L4.64398 15.2398C4.58718 14.8289 4.55722 14.4148 4.55429 14C4.55657 13.5912 4.58653 13.183 4.64398 12.7783L1.98124 10.6936C1.86527 10.5978 1.78713 10.464 1.76078 10.3159C1.73443 10.1678 1.7616 10.0152 1.83741 9.88531L4.35632 5.53656C4.43289 5.40783 4.55241 5.31021 4.69385 5.2609C4.83529 5.21159 4.98959 5.21373 5.1296 5.26695L8.26046 6.52477C8.9124 6.02274 9.62584 5.60611 10.3834 5.285L10.8516 1.96109C10.8778 1.81221 10.9548 1.67704 11.0697 1.57869C11.1845 1.48034 11.3299 1.42491 11.481 1.42188H16.5188C16.6672 1.42476 16.8102 1.47787 16.9246 1.57253C17.0389 1.66718 17.1178 1.7978 17.1483 1.94305L17.6164 5.26695C18.377 5.58412 19.0919 6.00143 19.7421 6.50781L22.8702 5.25C23.0102 5.19673 23.1644 5.1945 23.3059 5.24371C23.4473 5.29293 23.5669 5.39042 23.6435 5.51906L26.1624 9.86781C26.2382 9.9977 26.2654 10.1503 26.239 10.2984C26.2127 10.4465 26.1346 10.5803 26.0186 10.6761L23.3559 12.7608C23.4126 13.1715 23.4426 13.5854 23.4455 14Z" fill="#B5BAC1"/>
</svg>
